<svg width="46" height="46" viewBox="0 0 46 46" fill="none" xmlns="http://www.w3.org/2000/svg">
<path d="M6.85201 17.282L10.97 21.4C11.1486 21.5786 11.2904 21.7907 11.387 22.024C11.4837 22.2574 11.5335 22.5074 11.5335 22.76C11.5335 23.0126 11.4837 23.2627 11.387 23.4961C11.2904 23.7294 11.1486 23.9414 10.97 24.12L6.85201 28.238C6.67338 28.4166 6.53166 28.6286 6.43498 28.8619C6.3383 29.0953 6.28854 29.3454 6.28854 29.598C6.28854 29.8506 6.3383 30.1007 6.43498 30.3341C6.53166 30.5674 6.67338 30.7794 6.85201 30.958L7.62201 31.728C7.80059 31.9066 8.0126 32.0483 8.24596 32.145C8.47931 32.2417 8.72942 32.2915 8.98201 32.2915C9.2346 32.2915 9.48471 32.2417 9.71806 32.145C9.95142 32.0483 10.1634 31.9066 10.342 31.728L15.82 26.25L17.95 24.12C18.1286 23.9414 18.2704 23.7294 18.367 23.4961C18.4637 23.2627 18.5135 23.0126 18.5135 22.76C18.5135 22.5074 18.4637 22.2574 18.367 22.024C18.2704 21.7907 18.1286 21.5786 17.95 21.4L15.82 19.27L10.342 13.792C10.1634 13.6133 9.95142 13.4717 9.71806 13.375C9.48471 13.2783 9.2346 13.2285 8.98201 13.2285C8.72942 13.2285 8.47931 13.2783 8.24596 13.375C8.0126 13.4717 7.80059 13.6133 7.62201 13.792L6.85201 14.562C6.49148 14.9228 6.28896 15.4119 6.28896 15.922C6.28896 16.432 6.49148 16.9212 6.85201 17.282Z" fill="#96D226"/>
<path d="M17.316 6.81705L21.434 10.934C21.7948 11.2945 22.284 11.4971 22.794 11.4971C23.3041 11.4971 23.7932 11.2945 24.154 10.934L28.271 6.81705C28.6318 6.45652 29.121 6.25394 29.631 6.25394C30.1411 6.25394 30.6302 6.45652 30.991 6.81705L31.761 7.58694C32.1215 7.94773 32.3241 8.43701 32.3241 8.94705C32.3241 9.4571 32.1215 9.94626 31.761 10.307L26.283 15.7851L24.153 17.9149C23.7922 18.2755 23.3031 18.4781 22.793 18.4781C22.283 18.4781 21.7938 18.2755 21.433 17.9149L19.303 15.7851L13.825 10.307C13.4645 9.94626 13.262 9.4571 13.262 8.94705C13.262 8.43701 13.4645 7.94773 13.825 7.58694L14.595 6.81705C14.7736 6.63826 14.9857 6.49634 15.2191 6.39957C15.4526 6.3028 15.7028 6.25308 15.9555 6.25308C16.2082 6.25308 16.4585 6.3028 16.6919 6.39957C16.9253 6.49634 17.1374 6.63826 17.316 6.81705Z" fill="#96D226"/>
<path d="M38.733 28.221L34.615 24.1039C34.4364 23.9254 34.2947 23.7134 34.198 23.48C34.1013 23.2467 34.0515 22.9965 34.0515 22.744C34.0515 22.4914 34.1013 22.2413 34.198 22.008C34.2947 21.7746 34.4364 21.5625 34.615 21.384L38.733 17.267C39.0935 16.9062 39.2961 16.4171 39.2961 15.907C39.2961 15.397 39.0935 14.9077 38.733 14.5469L37.963 13.777C37.6022 13.4165 37.113 13.2139 36.603 13.2139C36.093 13.2139 35.6038 13.4165 35.243 13.777L29.765 19.2549L27.635 21.3849C27.4564 21.5635 27.3147 21.7756 27.218 22.009C27.1213 22.2423 27.0715 22.4923 27.0715 22.7449C27.0715 22.9975 27.1213 23.2477 27.218 23.481C27.3147 23.7144 27.4564 23.9265 27.635 24.105L29.765 26.235L35.243 31.713C35.6038 32.0735 36.093 32.2761 36.603 32.2761C37.113 32.2761 37.6022 32.0735 37.963 31.713L38.733 30.9429C38.9118 30.7643 39.0537 30.5522 39.1505 30.3187C39.2472 30.0851 39.2971 29.8348 39.2971 29.582C39.2971 29.3292 39.2472 29.0789 39.1505 28.8454C39.0537 28.6119 38.9118 28.3997 38.733 28.221Z" fill="#96D226"/>
<path d="M28.268 38.686L24.151 34.569C23.9724 34.3904 23.7604 34.2487 23.5271 34.152C23.2937 34.0554 23.0436 34.0056 22.791 34.0056C22.5384 34.0056 22.2883 34.0554 22.0549 34.152C21.8216 34.2487 21.6096 34.3904 21.431 34.569L17.313 38.686C17.1344 38.8646 16.9224 39.0064 16.6891 39.1031C16.4557 39.1998 16.2056 39.2495 15.953 39.2495C15.7004 39.2495 15.4503 39.1998 15.2169 39.1031C14.9836 39.0064 14.7716 38.8646 14.593 38.686L13.823 37.9161C13.4625 37.5553 13.2599 37.066 13.2599 36.556C13.2599 36.0459 13.4625 35.5568 13.823 35.196L19.301 29.7181L21.431 27.5881C21.7918 27.2275 22.281 27.025 22.791 27.025C23.301 27.025 23.7902 27.2275 24.151 27.5881L26.281 29.7181L31.759 35.196C32.1195 35.5568 32.3221 36.0459 32.3221 36.556C32.3221 37.066 32.1195 37.5553 31.759 37.9161L30.989 38.686C30.8103 38.8646 30.5982 39.0064 30.3648 39.1031C30.1314 39.1998 29.8812 39.2496 29.6285 39.2496C29.3758 39.2496 29.1256 39.1998 28.8922 39.1031C28.6588 39.0064 28.4467 38.8646 28.268 38.686Z" fill="#32CBCB"/>
<path d="M38.751 6.66403C35.0427 2.94721 30.1602 0.631423 24.9356 0.11154C19.7111 -0.408343 14.468 0.899787 10.0999 3.81296C5.73193 6.72612 2.50942 11.064 0.981722 16.0871C-0.545981 21.1103 -0.284312 26.5079 1.72212 31.3597C3.72856 36.2115 7.35556 40.2173 11.9849 42.6943C16.6142 45.1713 21.9593 45.9662 27.1091 44.9433C32.2588 43.9205 36.8945 41.1434 40.2258 37.0853C43.5572 33.0272 45.378 27.9393 45.378 22.6889C45.3875 19.7124 44.8067 16.7636 43.6692 14.0129C42.5317 11.2623 40.8601 8.76447 38.751 6.66403ZM37.332 37.295C33.9519 40.6825 29.5016 42.793 24.7396 43.2666C19.9777 43.7402 15.1989 42.5476 11.2178 39.8922C7.23667 37.2368 4.29971 33.2828 2.9075 28.7043C1.5153 24.1259 1.75404 19.2064 3.58302 14.7843C5.412 10.3621 8.71801 6.71116 12.9375 4.4537C17.157 2.19624 22.0289 1.47192 26.7226 2.40439C31.4163 3.33685 35.6414 5.86833 38.6776 9.56723C41.7138 13.2661 43.3732 17.9035 43.373 22.6889C43.3728 28.1654 41.2002 33.4183 37.332 37.295Z" fill="#96D226"/>
</svg>
