<svg width="377" height="76" viewBox="0 0 377 76" fill="none" xmlns="http://www.w3.org/2000/svg">
<path d="M90.2421 54.76C89.2501 54.952 88.0021 55.096 86.4981 55.192C85.0261 55.32 83.6501 55.384 82.3701 55.384C78.4021 55.384 75.5061 54.952 73.6821 54.088C71.8581 53.224 70.6261 51.656 69.9861 49.384C69.3781 47.08 69.0741 43.448 69.0741 38.488C69.0741 33.56 69.3781 29.944 69.9861 27.64C70.6261 25.336 71.8581 23.752 73.6821 22.888C75.5061 22.024 78.4021 21.592 82.3701 21.592C83.6821 21.592 85.0581 21.656 86.4981 21.784C87.9381 21.912 89.1221 22.088 90.0501 22.312V25.912C87.6501 25.592 85.4421 25.432 83.4261 25.432C80.0661 25.432 77.7141 25.688 76.3701 26.2C75.0581 26.712 74.1941 27.816 73.7781 29.512C73.3621 31.208 73.1541 34.2 73.1541 38.488C73.1541 42.776 73.3621 45.768 73.7781 47.464C74.1941 49.16 75.0581 50.264 76.3701 50.776C77.7141 51.288 80.0661 51.544 83.4261 51.544C85.8901 51.544 88.1621 51.384 90.2421 51.064V54.76ZM103.692 55.384C100.876 55.384 98.8275 54.872 97.5475 53.848C96.2675 52.792 95.6275 50.936 95.6275 48.28C95.6275 46.392 95.8515 44.92 96.2995 43.864C96.7475 42.808 97.4995 42.04 98.5555 41.56C99.6435 41.08 101.164 40.84 103.116 40.84C104.044 40.84 107.1 40.92 112.284 41.08V39.64C112.284 37.72 112.092 36.36 111.708 35.56C111.356 34.76 110.684 34.248 109.692 34.024C108.732 33.8 107.084 33.688 104.748 33.688C103.724 33.688 102.428 33.752 100.86 33.88C99.3235 33.976 98.1235 34.088 97.2595 34.216V30.808C99.7875 30.36 102.748 30.136 106.14 30.136C109.02 30.136 111.164 30.44 112.572 31.048C114.012 31.624 114.972 32.584 115.452 33.928C115.932 35.24 116.172 37.16 116.172 39.688V55H112.668L112.476 51.592H112.188C111.516 53.128 110.428 54.152 108.924 54.664C107.452 55.144 105.708 55.384 103.692 55.384ZM105.18 51.88C106.78 51.88 108.076 51.736 109.068 51.448C110.092 51.16 110.828 50.6 111.276 49.768C111.948 48.616 112.284 47.016 112.284 44.968V43.864H104.124C102.78 43.864 101.788 43.96 101.148 44.152C100.54 44.344 100.108 44.728 99.8515 45.304C99.5955 45.848 99.4675 46.712 99.4675 47.896C99.4675 49.048 99.6115 49.896 99.8995 50.44C100.188 50.984 100.716 51.368 101.484 51.592C102.284 51.784 103.516 51.88 105.18 51.88ZM124.539 55V19.336H128.427V55H124.539ZM136.582 23.8V19.336H140.71V23.8H136.582ZM136.726 55V30.52H140.614V55H136.726ZM165.474 41.224C165.474 38.952 165.33 37.336 165.042 36.376C164.754 35.384 164.21 34.728 163.41 34.408C162.61 34.088 161.266 33.928 159.378 33.928C157.362 33.928 155.874 34.248 154.914 34.888C153.986 35.528 153.394 36.408 153.138 37.528C152.914 38.648 152.802 40.264 152.802 42.376V55H148.914V30.52H152.37L152.562 33.976H152.85C153.394 32.728 154.29 31.784 155.538 31.144C156.786 30.472 158.594 30.136 160.962 30.136C163.33 30.136 165.106 30.472 166.29 31.144C167.506 31.816 168.322 32.824 168.738 34.168C169.154 35.48 169.362 37.32 169.362 39.688V55H165.474V41.224ZM185.664 55.384C183.232 55.384 181.376 55.016 180.096 54.28C178.816 53.544 177.904 52.296 177.36 50.536C176.848 48.744 176.592 46.168 176.592 42.808C176.592 39.416 176.848 36.824 177.36 35.032C177.872 33.24 178.752 31.976 180 31.24C181.28 30.504 183.12 30.136 185.52 30.136C187.632 30.136 189.328 30.392 190.608 30.904C191.92 31.416 192.88 32.312 193.488 33.592H193.776V19.336H197.664V55H194.16L194.016 51.592H193.728C193.056 53.064 192.032 54.072 190.656 54.616C189.28 55.128 187.616 55.384 185.664 55.384ZM187.152 51.64C188.816 51.64 190.128 51.432 191.088 51.016C192.048 50.568 192.704 49.88 193.056 48.952C193.376 48.216 193.568 47.384 193.632 46.456C193.728 45.496 193.776 44.184 193.776 42.52C193.776 41.144 193.728 40.008 193.632 39.112C193.536 38.216 193.36 37.448 193.104 36.808C192.72 35.816 192.032 35.096 191.04 34.648C190.08 34.168 188.752 33.928 187.056 33.928C185.04 33.928 183.584 34.136 182.688 34.552C181.824 34.936 181.232 35.72 180.912 36.904C180.624 38.088 180.48 40.04 180.48 42.76C180.48 45.544 180.624 47.528 180.912 48.712C181.232 49.896 181.824 50.68 182.688 51.064C183.584 51.448 185.072 51.64 187.152 51.64ZM206.007 30.52H209.463L209.655 35.176H209.943C210.519 33.256 211.479 31.944 212.823 31.24C214.167 30.504 215.927 30.136 218.103 30.136V34.312C215.895 34.312 214.199 34.648 213.015 35.32C211.831 35.992 211.015 37.032 210.567 38.44C210.119 39.816 209.895 41.688 209.895 44.056V55H206.007V30.52ZM229.692 55.384C226.876 55.384 224.828 54.872 223.548 53.848C222.268 52.792 221.628 50.936 221.628 48.28C221.628 46.392 221.852 44.92 222.3 43.864C222.748 42.808 223.5 42.04 224.556 41.56C225.644 41.08 227.164 40.84 229.116 40.84C230.044 40.84 233.1 40.92 238.284 41.08V39.64C238.284 37.72 238.092 36.36 237.708 35.56C237.356 34.76 236.684 34.248 235.692 34.024C234.732 33.8 233.084 33.688 230.748 33.688C229.724 33.688 228.428 33.752 226.86 33.88C225.324 33.976 224.124 34.088 223.26 34.216V30.808C225.788 30.36 228.748 30.136 232.14 30.136C235.02 30.136 237.164 30.44 238.572 31.048C240.012 31.624 240.972 32.584 241.452 33.928C241.932 35.24 242.172 37.16 242.172 39.688V55H238.668L238.476 51.592H238.188C237.516 53.128 236.428 54.152 234.924 54.664C233.452 55.144 231.708 55.384 229.692 55.384ZM231.18 51.88C232.78 51.88 234.076 51.736 235.068 51.448C236.092 51.16 236.828 50.6 237.276 49.768C237.948 48.616 238.284 47.016 238.284 44.968V43.864H230.124C228.78 43.864 227.788 43.96 227.148 44.152C226.54 44.344 226.108 44.728 225.852 45.304C225.596 45.848 225.468 46.712 225.468 47.896C225.468 49.048 225.612 49.896 225.9 50.44C226.188 50.984 226.716 51.368 227.484 51.592C228.284 51.784 229.516 51.88 231.18 51.88ZM273.451 55.384C271.691 55.384 269.723 55.32 267.547 55.192C265.403 55.064 263.499 54.904 261.835 54.712V50.92C265.995 51.336 269.467 51.544 272.251 51.544C273.979 51.544 275.339 51.48 276.331 51.352C277.355 51.192 278.219 50.92 278.923 50.536C279.563 50.152 279.979 49.592 280.171 48.856C280.363 48.088 280.459 47.08 280.459 45.832C280.459 44.328 280.379 43.272 280.219 42.664C280.059 42.024 279.675 41.56 279.067 41.272C278.491 40.984 277.483 40.776 276.043 40.648L267.883 39.736C265.899 39.512 264.395 39.048 263.371 38.344C262.379 37.608 261.707 36.664 261.355 35.512C261.035 34.328 260.875 32.792 260.875 30.904C260.875 28.28 261.323 26.296 262.219 24.952C263.147 23.608 264.427 22.712 266.059 22.264C267.723 21.816 269.947 21.592 272.731 21.592C274.587 21.592 276.475 21.672 278.395 21.832C280.315 21.992 281.835 22.184 282.955 22.408V26.056C281.739 25.864 280.235 25.72 278.443 25.624C276.651 25.496 274.987 25.432 273.451 25.432C271.659 25.432 270.219 25.512 269.131 25.672C268.043 25.832 267.195 26.104 266.587 26.488C265.915 26.872 265.483 27.384 265.291 28.024C265.099 28.664 265.003 29.576 265.003 30.76C265.003 32.072 265.099 33.032 265.291 33.64C265.483 34.216 265.851 34.648 266.395 34.936C266.939 35.192 267.835 35.384 269.083 35.512L277.147 36.424C279.067 36.616 280.555 36.952 281.611 37.432C282.667 37.912 283.435 38.776 283.915 40.024C284.363 41.176 284.587 43.016 284.587 45.544C284.587 48.456 284.139 50.632 283.243 52.072C282.347 53.48 281.147 54.392 279.643 54.808C278.139 55.192 276.075 55.384 273.451 55.384ZM293.57 55V34.072H288.626V30.52H293.57V23.416H297.458V30.52H303.314V34.072H297.458V55H293.57ZM318.266 55.384C314.842 55.384 312.394 55.048 310.922 54.376C309.45 53.672 308.506 52.504 308.09 50.872C307.706 49.208 307.514 46.504 307.514 42.76C307.514 39.016 307.706 36.328 308.09 34.696C308.506 33.032 309.45 31.864 310.922 31.192C312.394 30.488 314.842 30.136 318.266 30.136C321.658 30.136 324.09 30.488 325.562 31.192C327.034 31.864 327.962 33.032 328.346 34.696C328.762 36.328 328.97 39.016 328.97 42.76C328.97 46.504 328.762 49.208 328.346 50.872C327.962 52.504 327.034 53.672 325.562 54.376C324.09 55.048 321.658 55.384 318.266 55.384ZM318.266 51.832C320.602 51.832 322.218 51.624 323.114 51.208C324.01 50.792 324.554 50.04 324.746 48.952C324.97 47.832 325.082 45.768 325.082 42.76C325.082 39.752 324.97 37.704 324.746 36.616C324.554 35.496 324.01 34.728 323.114 34.312C322.218 33.896 320.602 33.688 318.266 33.688C315.93 33.688 314.298 33.896 313.37 34.312C312.474 34.728 311.914 35.496 311.69 36.616C311.498 37.704 311.402 39.752 311.402 42.76C311.402 45.768 311.498 47.832 311.69 48.952C311.914 50.04 312.474 50.792 313.37 51.208C314.298 51.624 315.93 51.832 318.266 51.832ZM336.273 30.52H339.729L339.921 35.176H340.209C340.785 33.256 341.745 31.944 343.089 31.24C344.433 30.504 346.193 30.136 348.369 30.136V34.312C346.161 34.312 344.465 34.648 343.281 35.32C342.097 35.992 341.281 37.032 340.833 38.44C340.385 39.816 340.161 41.688 340.161 44.056V55H336.273V30.52ZM373.248 44.152H356.496C356.496 46.488 356.656 48.152 356.976 49.144C357.296 50.136 357.984 50.84 359.04 51.256C360.128 51.64 361.936 51.832 364.464 51.832C366.928 51.832 369.536 51.656 372.288 51.304V54.712C371.264 54.904 369.936 55.064 368.304 55.192C366.672 55.32 365.12 55.384 363.648 55.384C360.352 55.384 357.92 55 356.352 54.232C354.816 53.464 353.808 52.232 353.328 50.536C352.848 48.84 352.608 46.264 352.608 42.808C352.608 39.416 352.816 36.872 353.232 35.176C353.68 33.48 354.656 32.216 356.16 31.384C357.696 30.552 360.112 30.136 363.408 30.136C366.48 30.136 368.704 30.552 370.08 31.384C371.456 32.184 372.32 33.416 372.672 35.08C373.056 36.712 373.248 39.272 373.248 42.76V44.152ZM363.312 33.688C361.232 33.688 359.728 33.88 358.8 34.264C357.904 34.616 357.296 35.304 356.976 36.328C356.688 37.32 356.528 38.936 356.496 41.176H369.504V40.792C369.504 38.68 369.312 37.128 368.928 36.136C368.576 35.144 367.984 34.488 367.152 34.168C366.32 33.848 365.04 33.688 363.312 33.688Z" fill="white"/>
<path d="M6.85201 32.282L10.97 36.4C11.1486 36.5786 11.2904 36.7907 11.387 37.024C11.4837 37.2574 11.5335 37.5074 11.5335 37.76C11.5335 38.0126 11.4837 38.2627 11.387 38.4961C11.2904 38.7294 11.1486 38.9414 10.97 39.12L6.85201 43.238C6.67338 43.4166 6.53166 43.6286 6.43498 43.8619C6.3383 44.0953 6.28854 44.3454 6.28854 44.598C6.28854 44.8506 6.3383 45.1007 6.43498 45.3341C6.53166 45.5674 6.67338 45.7794 6.85201 45.958L7.62201 46.728C7.80059 46.9066 8.0126 47.0483 8.24596 47.145C8.47931 47.2417 8.72942 47.2915 8.98201 47.2915C9.2346 47.2915 9.48471 47.2417 9.71806 47.145C9.95142 47.0483 10.1634 46.9066 10.342 46.728L15.82 41.25L17.95 39.12C18.1286 38.9414 18.2704 38.7294 18.367 38.4961C18.4637 38.2627 18.5135 38.0126 18.5135 37.76C18.5135 37.5074 18.4637 37.2574 18.367 37.024C18.2704 36.7907 18.1286 36.5786 17.95 36.4L15.82 34.27L10.342 28.792C10.1634 28.6133 9.95142 28.4717 9.71806 28.375C9.48471 28.2783 9.2346 28.2285 8.98201 28.2285C8.72942 28.2285 8.47931 28.2783 8.24596 28.375C8.0126 28.4717 7.80059 28.6133 7.62201 28.792L6.85201 29.562C6.49148 29.9228 6.28896 30.4119 6.28896 30.922C6.28896 31.432 6.49148 31.9212 6.85201 32.282Z" fill="#96D226"/>
<path d="M17.316 21.817L21.434 25.934C21.7948 26.2945 22.284 26.4971 22.794 26.4971C23.3041 26.4971 23.7932 26.2945 24.154 25.934L28.271 21.817C28.6318 21.4565 29.121 21.2539 29.631 21.2539C30.1411 21.2539 30.6302 21.4565 30.991 21.817L31.761 22.5869C32.1215 22.9477 32.3241 23.437 32.3241 23.9471C32.3241 24.4571 32.1215 24.9463 31.761 25.307L26.283 30.7851L24.153 32.9149C23.7922 33.2755 23.3031 33.4781 22.793 33.4781C22.283 33.4781 21.7938 33.2755 21.433 32.9149L19.303 30.7851L13.825 25.307C13.4645 24.9463 13.262 24.4571 13.262 23.9471C13.262 23.437 13.4645 22.9477 13.825 22.5869L14.595 21.817C14.7736 21.6383 14.9857 21.4963 15.2191 21.3996C15.4526 21.3028 15.7028 21.2531 15.9555 21.2531C16.2082 21.2531 16.4585 21.3028 16.6919 21.3996C16.9253 21.4963 17.1374 21.6383 17.316 21.817Z" fill="#96D226"/>
<path d="M38.733 43.221L34.615 39.1039C34.4364 38.9254 34.2947 38.7134 34.198 38.48C34.1013 38.2467 34.0515 37.9965 34.0515 37.744C34.0515 37.4914 34.1013 37.2413 34.198 37.008C34.2947 36.7746 34.4364 36.5625 34.615 36.384L38.733 32.267C39.0935 31.9062 39.2961 31.4171 39.2961 30.907C39.2961 30.397 39.0935 29.9077 38.733 29.5469L37.963 28.777C37.6022 28.4165 37.113 28.2139 36.603 28.2139C36.093 28.2139 35.6038 28.4165 35.243 28.777L29.765 34.2549L27.635 36.3849C27.4564 36.5635 27.3147 36.7756 27.218 37.009C27.1213 37.2423 27.0715 37.4923 27.0715 37.7449C27.0715 37.9975 27.1213 38.2477 27.218 38.481C27.3147 38.7144 27.4564 38.9265 27.635 39.105L29.765 41.235L35.243 46.713C35.6038 47.0735 36.093 47.2761 36.603 47.2761C37.113 47.2761 37.6022 47.0735 37.963 46.713L38.733 45.9429C38.9118 45.7643 39.0537 45.5522 39.1505 45.3187C39.2472 45.0851 39.2971 44.8348 39.2971 44.582C39.2971 44.3292 39.2472 44.0789 39.1505 43.8454C39.0537 43.6119 38.9118 43.3997 38.733 43.221Z" fill="#96D226"/>
<path d="M28.268 53.686L24.151 49.569C23.9724 49.3904 23.7604 49.2487 23.5271 49.152C23.2937 49.0554 23.0436 49.0056 22.791 49.0056C22.5384 49.0056 22.2883 49.0554 22.0549 49.152C21.8216 49.2487 21.6096 49.3904 21.431 49.569L17.313 53.686C17.1344 53.8646 16.9224 54.0064 16.6891 54.1031C16.4557 54.1998 16.2056 54.2495 15.953 54.2495C15.7004 54.2495 15.4503 54.1998 15.2169 54.1031C14.9836 54.0064 14.7716 53.8646 14.593 53.686L13.823 52.9161C13.4625 52.5553 13.2599 52.066 13.2599 51.556C13.2599 51.0459 13.4625 50.5568 13.823 50.196L19.301 44.7181L21.431 42.5881C21.7918 42.2275 22.281 42.025 22.791 42.025C23.301 42.025 23.7902 42.2275 24.151 42.5881L26.281 44.7181L31.759 50.196C32.1195 50.5568 32.3221 51.0459 32.3221 51.556C32.3221 52.066 32.1195 52.5553 31.759 52.9161L30.989 53.686C30.8103 53.8646 30.5982 54.0064 30.3648 54.1031C30.1314 54.1998 29.8812 54.2496 29.6285 54.2496C29.3758 54.2496 29.1256 54.1998 28.8922 54.1031C28.6588 54.0064 28.4467 53.8646 28.268 53.686Z" fill="#32CBCB"/>
<path d="M38.751 21.664C35.0427 17.9472 30.1602 15.6314 24.9356 15.1115C19.7111 14.5917 14.468 15.8998 10.0999 18.813C5.73193 21.7261 2.50942 26.064 0.981722 31.0871C-0.545981 36.1103 -0.284312 41.5079 1.72212 46.3597C3.72856 51.2115 7.35556 55.2173 11.9849 57.6943C16.6142 60.1713 21.9593 60.9662 27.1091 59.9433C32.2588 58.9205 36.8945 56.1434 40.2258 52.0853C43.5572 48.0272 45.378 42.9393 45.378 37.6889C45.3875 34.7124 44.8067 31.7636 43.6692 29.0129C42.5317 26.2623 40.8601 23.7645 38.751 21.664ZM37.332 52.295C33.9519 55.6825 29.5016 57.793 24.7396 58.2666C19.9777 58.7402 15.1989 57.5476 11.2178 54.8922C7.23667 52.2368 4.29971 48.2828 2.9075 43.7043C1.5153 39.1259 1.75404 34.2064 3.58302 29.7843C5.412 25.3621 8.71801 21.7112 12.9375 19.4537C17.157 17.1962 22.0289 16.4719 26.7226 17.4044C31.4163 18.3368 35.6414 20.8683 38.6776 24.5672C41.7138 28.2661 43.3732 32.9035 43.373 37.6889C43.3728 43.1654 41.2002 48.4183 37.332 52.295Z" fill="#96D226"/>
</svg>
